<svg id="visual" viewBox="0 0 900 600" width="900" height="600" xmlns="http://www.w3.org/2000/svg" xmlns:xlink="http://www.w3.org/1999/xlink" version="1.1"><path d="M0 458L21.5 467.8C43 477.7 86 497.3 128.8 498.3C171.7 499.3 214.3 481.7 257.2 461.8C300 442 343 420 385.8 418.2C428.7 416.3 471.3 434.7 514.2 445.8C557 457 600 461 642.8 461.7C685.7 462.3 728.3 459.7 771.2 445.8C814 432 857 407 878.5 394.5L900 382L900 601L878.5 601C857 601 814 601 771.2 601C728.3 601 685.7 601 642.8 601C600 601 557 601 514.2 601C471.3 601 428.7 601 385.8 601C343 601 300 601 257.2 601C214.3 601 171.7 601 128.8 601C86 601 43 601 21.5 601L0 601Z" fill="#35b930" stroke-linecap="round" stroke-linejoin="miter"></path></svg>